<svg xmlns="http://www.w3.org/2000/svg" xmlns:xlink="http://www.w3.org/1999/xlink" width="100" height="100" viewBox="0 0 100 100"><g transform="translate(50 50) scale(0.69 0.69) rotate(-45) translate(-50 -50)" style="fill:#ff6b35"><svg fill="#ff6b35" xmlns="http://www.w3.org/2000/svg" xmlns:xlink="http://www.w3.org/1999/xlink" xml:space="preserve" version="1.1" style="shape-rendering:geometricPrecision;text-rendering:geometricPrecision;image-rendering:optimizeQuality;" viewBox="0 0 846.66 846.66" x="0px" y="0px" fill-rule="evenodd" clip-rule="evenodd"><defs><style type="text/css">
   
    .fil0 {fill:#ff6b35}
   
  </style></defs><g><path class="fil0" d="M469.33 282.79c-9.34,15.66 -26.39,26.11 -46.01,26.11 -19.64,0 -36.74,-10.45 -46.05,-26.11l92.06 0zm335.56 -45.63c8.45,216.27 -165.07,396.65 -381.57,396.65 -216.89,0 -390.48,-181.34 -381.5,-398.6 0.49,-12.5 10.78,-22.29 23.18,-22.29l716.65 -0.07c13.51,0 23.54,10.98 23.24,24.31zm-46.21 22.22l-670.71 0c3.77,182.64 153.55,327.89 335.35,327.89 181.32,0 331.59,-144.8 335.36,-327.89zm-286.33 69.53l156.16 156.14c-56.59,48.47 -113.65,72.09 -187.81,77.79l0 -220.8c12.71,-3.26 20.53,-6.52 31.65,-13.13zm-254.24 156.19l156.23 -156.21c11.29,6.63 19.1,9.94 31.65,13.15l0 220.82c-74.28,-5.72 -131.4,-29.39 -187.88,-77.76zm121.51 -202.31c2.52,7.45 5.54,13.66 10.19,21.53l-156.18 156.2c-46.26,-54 -69.9,-108.41 -76.9,-177.73l222.89 0zm390.3 0c-7.03,69.44 -30.72,123.84 -76.88,177.73l-156.21 -156.23c4.65,-7.81 7.68,-14.05 10.19,-21.5l222.9 0z"></path></g></svg></g></svg>